<svg xmlns="http://www.w3.org/2000/svg" viewBox="0 0 1228.72 210.46"><g id="Layer_2" data-name="Layer 2"><g id="BN"><path d="M1,109.38C1,75.65,1,41.92.94,8.19c0-2.82.67-3.68,3.59-3.67q43.35.17,86.69,0c4.21,0,4-.48,4.21,2.24,1,12.64,1.71,26.67,2.93,39.29.44,4.56,1.39,9.07,2.14,13.6.42,2.51,2.16,3.43,4.48,3.28s4-1.3,4.19-4c.65-9.08,1.29-18.17,2.15-27.23.79-8.41,1.81-16.79,2.9-25.16.17-1.74.17-1.74.86-1.91.38-.1,5.37,0,5.84,0h82.14c3.56,0,3.7.09,3.62,3.63C206,38.46,205.1,68.7,204.74,99c-.21,18.78.29,37.58.72,56.36s1.13,37.37,1.77,56.06c.09,2.65-.78,2.84-4.94,2.84H139.91c-4.16,0-5-.11-5-2.81,0-5.45-1.51-34.09-2-43.86q-.17-3.28-.17-6.59v-4.52c0-3.92,0-3.69-.75-4.33a2.15,2.15,0,0,0-3.33.73,28.42,28.42,0,0,0-1.86,6.25c-2.26,13-3,21.75-5.22,34.79-1,5.92-2,11.83-3,17.74-.33,1.92-1.09,2.82-3.33,2.78-9.31-.15-18.63-.12-27.95,0-2.11,0-3-.56-3.3-2.72-1.53-12.67-3.09-25.33-4.78-38a89,89,0,0,0-2.68-13.53c-1.3-3.72-1.3-5.23-2.61-7.84A2.59,2.59,0,0,0,71.25,151s-1.31,0-1.31,2.62c-.43,11.63-1.16,25.07-1.55,36.71-.24,7-.47,14.07-.54,21.1a3,3,0,0,1-3,2.94q-31.06-.1-62.13,0c-2.41,0-2.8-.93-2.76-3C.44,191.59.92,171.77,1.17,152c.19-14.19,0-28.38,0-42.57Z" transform="translate(0 -4.15)"/><path d="M741.87,6.75a2.26,2.26,0,0,1,2.24-2h1.42c38.77,0,77.55.24,116.32-.14,12.8-.12,22.82,4.77,31.23,13.62C903.64,29.36,909.14,42.85,910.41,58a235,235,0,0,1-.27,38.26c-1.33,16.78-8.3,31-18.38,44-2,2.54-1.75,5.07-.56,7.65,8.18,17.71,13.12,36.47,18,55.25.64,2.44,1.17,4.92,1.69,7.39.57,2.74-.52,4-3.41,4-23.9,0-47.81,0-71.71,0-2.12,0-3.06-.69-3.83-2.76-4.73-12.76-6.1-17.19-11-29.88-.24-.61-2.63-6-3.92-9.16-.45-1.08-2.5-5-2.62-5.22-2.47-4.05-7.64-2.74-8.07,2V171c-.07,1-.2,12.56-.21,13.6-.17,12.85-.37,12.56-.47,25.55a4.47,4.47,0,0,1-4.46,4.44q-28.37,0-56.73,0h0a2.35,2.35,0,0,1-2.3-1.9c-1.47-7.58-2.82-15-4.44-22.41-3.83-17.47-7.5-35-11.93-52.32a77.66,77.66,0,0,1-2.76-20.46c.15-11.93-.29-23.87.16-35.79.18-4.66,2-9.26,3.26-13.87C731.19,49.86,736,32,740.65,14A64.21,64.21,0,0,0,741.87,6.75Zm79.28,77.84c-.37-5.29-.4-10.39-1.17-15.38a37,37,0,0,0-3.27-10.34c-1.4-2.89-5.26-4-8.07-3.12-3,.93-3.72,2.15-3.74,6.57,0,7.23-.1,14.47-.09,21.7,0,5.64,0,11.28.18,16.91s4.55,8.21,9.52,5.39c3.58-2,5.07-5.51,5.59-9.32C820.67,92.82,820.83,88.59,821.15,84.59Z" transform="translate(0 -4.15)"/><path d="M370,8.61a3.84,3.84,0,0,1,3.85-3.82h0c44.81,0,89.62.21,134.43-.13C521.46,4.55,531.62,9.8,540.06,19c9.82,10.73,15.12,23.55,16.48,38.06a226.91,226.91,0,0,1-.09,39.1c-1.29,16.33-7.86,30.39-17.68,43.11a8.09,8.09,0,0,0-1.25,8.82c3.09,7.84,6.55,15.58,9,23.62,3.83,12.43,7,25.07,10.37,37.65,1.09,4.09.13,5.16-4,5.16-23.44,0-46.88,0-70.32.06-2.62,0-3.69-.87-4.59-3.32-5-13.53-8.75-22.42-13.95-35.88-.57-1.48-2.93-7.4-3.71-8.79a4.07,4.07,0,0,0-4.69-2.15,4.2,4.2,0,0,0-3.16,4.19c-.15,3.09-.47,6.19-.5,9.28-.07,10.71-.06,21.42-.06,32.14,0,4.11-.33,4.47-4.51,4.47H397.8a2.52,2.52,0,0,1-2.46-2c-3.33-17.88-6.74-35.59-9.88-53.34-2.51-14.22-4.62-28.52-7-42.76-2.29-13.78-4.7-27.54-7-41.32-1.07-6.27-2.07-12.51-1.9-19,.41-15.78.34-31.57.46-47.35Zm81.13,60c.1,1.81.26,5.63.38,8.18.1,2.21.15,4.42.1,6.64-.12,6-.44,12.61-.26,18.31.14,4.4,3.23,6.66,7.26,5.32a10.59,10.59,0,0,0,5.25-3.8,18.35,18.35,0,0,0,2.71-7.54,101.57,101.57,0,0,0-.69-29.13,15.53,15.53,0,0,0-2.73-6.8,11.84,11.84,0,0,0-2.31-2.53,6.21,6.21,0,0,0-6.26-1.38c-3.19,1-3.57,3.4-3.54,6.21,0,5.32,0,1,0,3.59C451.06,66.65,451.08,67.62,451.13,68.6Z" transform="translate(0 -4.15)"/><path d="M1094.83,4.37h72.39a1.46,1.46,0,0,1,1.47,1.46V16.57c-.24,66.34-.47,124-.7,190.37,0,1.55,0,2.74,0,3.88a4.29,4.29,0,0,1-1,2.84h0a1.86,1.86,0,0,1-.7.51,5.51,5.51,0,0,1-1.62.37c-27.1,0-54.21,0-81.32.07-2.47,0-3.36-.81-3.95-3.08q-5.75-22.15-11.75-44.25a35.32,35.32,0,0,0-2.66-6.79c-1.43-2.82-4.3-3.21-6.08-.62a11.71,11.71,0,0,0-2,6.22c0,14.94.32,29.88.52,44.81,0,.17,0,.34,0,.51a2.94,2.94,0,0,1-2.94,3h-47.91a2.78,2.78,0,0,1-2.77-2.61c-4.14-68.28-4-136.55-2.73-205a2.38,2.38,0,0,1,2.38-2.33h59.58a2.37,2.37,0,0,1,2.32,1.85c1.33,5.87,2.65,11.81,4,17.74,2.83,12.23,5.58,24.48,8.56,36.67,1.09,4.44,2.91,6,5.5,5.66,2.41-.29,3.94-2.26,4.23-6.5q.66-10,.76-20c.11-10.71,0-20.41,0-31.13v-2a2.35,2.35,0,0,1,2.35-2.35Z" transform="translate(0 -4.15)"/><path d="M565.9,210.14c-1.09-5-.94-5.69-2.08-10.27-4.07-16.47-8.31-32.93-15.07-48.52-2.15-4.95-2-8.32,1.27-12.49,11.35-14.62,14.87-31.84,16.07-49.81A177.74,177.74,0,0,0,565,52.23a72.9,72.9,0,0,0-19.26-40.51c-1.87-2-1.46-4.1-1.32-6.28,0-.43.76-1,1.28-1.17A8,8,0,0,1,548,4.19q37.41,0,74.82,0c3.61,0,3.51,0,3.38,3.67q-.82,22.65-1.45,45.31a21.2,21.2,0,0,0,.66,5.3c1,2.31,2.57,2.31,4.18,1.57s4.18-4.94,5.13-7.82c4.59-14,8.8-28.07,13.16-42.12,1.83-5.88,1.85-5.87,7.93-5.87h72.85c4.24,0,4.72.35,3.78,4.79-1.83,8.71-3.65,17.44-6,26q-9.14,32.76-18.83,65.36a20.08,20.08,0,0,0,.27,13.1c4.17,11.73,8.57,23.45,11.7,35.47,4,15.5,6.91,31.28,10.25,47,1,4.86,2,9.74,2.89,14.62.68,3.48.6,3.57-3.12,3.58h-70c-3.3,0-6.6-.15-9.88.05-2.31.15-3-.87-3.54-2.9-4.08-16.65-8.16-33.3-12.45-49.9a38.91,38.91,0,0,0-4-9.19,3.34,3.34,0,0,0-3.61-2c-1.23-.38-1.58,2.36-1.66,3.59-.46,7.5-.72,15-1,22.52q-.73,17.58-1.44,35.17c-.06,1.57-.28,2.71-2.31,2.7-17.5-.05-35,0-52.52-.06C566.77,214.06,565.9,210.14,565.9,210.14Z" transform="translate(0 -4.15)"/><path d="M217.94,214.54a1.81,1.81,0,0,1-1.81-1.76c-.81-33.08-1.7-66-2.37-98.9-.2-10-.25-20.14.53-30.14.7-8.95,2.63-17.8,4-26.69,2.39-15.47,4.8-30.94,7.12-46.43.87-5.84,2.71-5.82,6.72-5.85q57.31,0,114.63-.07c2.79,0,3.7.91,4.13,3.5,2.92,17.76,6,35.5,9,53.24,3.32,19.4,6.7,38.79,10,58.2,2.39,14.15,4.49,28.34,7,42.46,2.88,16.24,6.07,32.42,9.15,48.62.7,3.69.64,3.82-3.14,3.82q-52.37,0-104.75.06c-2.72,0-3.72-.73-3.44-3.5,1.68-16.33,3.18-32.68,4.92-49,.67-6.36.89-6.32,7.44-6.26,3.3,0,6.59.08,9.89,0,4.93-.09,7.36-3.26,6.66-8.11-1.82-12.52-3.62-25.06-5.22-37.62-1.31-10.32-2.26-20.69-3.53-31A20,20,0,0,0,293,72.9c-2.31-4.77-6.83-5-9.57-.42a29.74,29.74,0,0,0-3.55,9.76c-2.58,14-4.75,28.1-7.18,42.14-2.29,13.2-4.81,26.36-7,39.58-2,11.74-3.71,23.52-5.41,35.31-.61,4.27-.81,8.59-1.17,12.89-.11,1.29-.19,2.4-2,2.4C244.1,214.52,231.14,214.54,217.94,214.54Z" transform="translate(0 -4.15)"/><path d="M920.6,214.45c-.92-4.49-1.65-8.7-2.65-12.83-4-16.68-8.18-33.39-15.07-49.13-2.58-5.88-2.18-9.88,1.57-14.74,9.34-12.13,13-26.34,14.69-41.33a198.88,198.88,0,0,0,.39-38.26c-1.44-17.41-7.6-33-19.58-46-1.33-1.45-2.91-2.66-4.28-4.07-.47-.48-1.07-1.45-.88-1.83a2.85,2.85,0,0,1,1-1.26,1.23,1.23,0,0,1,.7-.19h90.81c3.7,0,5.06,1.4,5,4.82-.37,21.51-1.06,43-1,64.53.11,33.29.59,66.58,1.27,99.86.24,11.82,1.27,23.59,2.23,35.37.3,3.72-.88,5.16-4.44,5.16q-34.32,0-68.63,0A6.66,6.66,0,0,1,920.6,214.45Z" transform="translate(0 -4.15)"/></g><g id="Layer_7" data-name="Layer 7"><path d="M1174.86,12.08V6.39h23v5.69Zm8.53,25.61V9h5.9V37.69Z" transform="translate(0 -4.15)"/><path d="M1215,27.49l6-21.1h7.77v31.3h-5.36V13.39l.22,1.38-6,19.44h-5.21l-6-19,.22-1.81v24.3h-5.36V6.39H1209Z" transform="translate(0 -4.15)"/></g></g></svg>