<svg xmlns="http://www.w3.org/2000/svg" viewBox="0 0 1271.82 1059.62"><defs><style>.cls-1{fill:#fff;}</style></defs><g id="Layer_2" data-name="Layer 2"><g id="color_option"><path d="M1271.82,1052.37,1271.08,7.23A7.25,7.25,0,0,0,1263.84,0H819.69a7.24,7.24,0,0,0-7.24,7.24V420.1a7.24,7.24,0,0,1-7.24,7.24H466.6a7.24,7.24,0,0,1-7.24-7.24V7.24A7.24,7.24,0,0,0,452.12,0H8A7.24,7.24,0,0,0,.74,7.23L0,1052.37a7.25,7.25,0,0,0,7.24,7.25H118.13a7.24,7.24,0,0,0,7.24-7.24v-41.23a7.25,7.25,0,0,1,3.55-6.23L599.69,725.8a16,16,0,0,1,8.18-2.25h56.06a16.07,16.07,0,0,1,8.19,2.25l470.78,279.12a7.25,7.25,0,0,1,3.55,6.23v41.23a7.24,7.24,0,0,0,7.23,7.24h110.9A7.25,7.25,0,0,0,1271.82,1052.37Z"/><path class="cls-1" d="M847.56,44.26V457.09a7.24,7.24,0,0,1-7.24,7.24H431.49a7.24,7.24,0,0,1-7.24-7.24V44.26A7.24,7.24,0,0,0,417,37L44.09,36.89a7.23,7.23,0,0,0-7.24,7.24v972a7.24,7.24,0,0,0,7.24,7.24H80.92a7.24,7.24,0,0,0,7.24-7.24v-41.4a7.24,7.24,0,0,1,3.56-6.24L599.47,669a16,16,0,0,1,8.15-2.23h56.57a16,16,0,0,1,8.16,2.23L1180.1,968.48a7.26,7.26,0,0,1,3.56,6.24v41.4a7.24,7.24,0,0,0,7.24,7.24h36.83a7.24,7.24,0,0,0,7.24-7.24v-972a7.23,7.23,0,0,0-7.24-7.24L854.8,37A7.24,7.24,0,0,0,847.56,44.26Z"/><path d="M526.64,560.75l-153.42-1.82a7.23,7.23,0,0,1-7.16-7.24V139.51a7.24,7.24,0,0,0-7.24-7.24H120.39a7.24,7.24,0,0,0-7.24,7.24V812.76a7.23,7.23,0,0,0,11,6.2L530.29,574.19A7.24,7.24,0,0,0,526.64,560.75Z"/><path d="M745.17,560.75l153.43-1.82a7.23,7.23,0,0,0,7.15-7.24V139.51a7.24,7.24,0,0,1,7.24-7.24h238.44a7.24,7.24,0,0,1,7.24,7.24V812.76a7.24,7.24,0,0,1-11,6.2L741.52,574.19A7.24,7.24,0,0,1,745.17,560.75Z"/></g></g></svg>